PathFileType	4	(X/Y/Z)	s01c0102.trc
DataRate	CameraRate	NumFrames	NumMarkers	Units	OrigDataRate	OrigDataStartFrame	OrigNumFrames
200	200	4	48	mm	200	1500	2000
Frame#	Time	racr			lacr			c7			jug			rlel			rdr			llel			ldr			s2			lic			ric			lasi			rasi			rpsi			lpsi			rgt			lgt			rth1			rth2			rth3			rth4			rlfc			rsh1			rsh2			rsh3			rsh4			rlmal			rmmal			rcal			rtoe			rmt5			lth1			lth2			lth4			lth3			llfc			lsh1			lsh2			lsh3			lsh4			llmal			lmmal			lcal			ltoe			lmt5			SBIKE			LBIKE			RBIKE			
		X1	Y1	Z1	X2	Y2	Z2	X3	Y3	Z3	X4	Y4	Z4	X5	Y5	Z5	X6	Y6	Z6	X7	Y7	Z7	X8	Y8	Z8	X9	Y9	Z9	X10	Y10	Z10	X11	Y11	Z11	X12	Y12	Z12	X13	Y13	Z13	X14	Y14	Z14	X15	Y15	Z15	X16	Y16	Z16	X17	Y17	Z17	X18	Y18	Z18	X19	Y19	Z19	X20	Y20	Z20	X21	Y21	Z21	X22	Y22	Z22	X23	Y23	Z23	X24	Y24	Z24	X25	Y25	Z25	X26	Y26	Z26	X27	Y27	Z27	X28	Y28	Z28	X29	Y29	Z29	X30	Y30	Z30	X31	Y31	Z31	X32	Y32	Z32	X33	Y33	Z33	X34	Y34	Z34	X35	Y35	Z35	X36	Y36	Z36	X37	Y37	Z37	X38	Y38	Z38	X39	Y39	Z39	X40	Y40	Z40	X41	Y41	Z41	X42	Y42	Z42	X43	Y43	Z43	X44	Y44	Z44	X45	Y45	Z45	X46	Y46	Z46	X47	Y47	Z47	X48	Y48	Z48	
1500	7.5000	486.936096	1323.354736	-101.655624	515.946106	1304.999146	-416.008392	444.430389	1391.444580	-261.809723	454.006134	1226.414429	-261.615723	564.062866	1061.100098	-7.360474	729.633179	861.795715	-63.021175	567.377014	1043.231323	-528.008972	728.732849	866.173645	-430.068237	-72.943947	1144.480103	-252.390518	93.488350	1147.139282	-427.671265	92.846222	1162.975708	-103.622490	93.069855	1096.205200	-405.778473	118.973961	1121.010986	-136.237411	-42.072723	1186.128540	-205.340820	-48.466373	1185.586792	-310.840759	53.119968	1065.435059	-59.855328	25.966288	1006.998901	-448.332794	175.842026	1021.451538	-53.083530	257.313293	1007.209656	-60.117260	343.864777	984.922729	-74.049843	267.971985	1059.059204	-79.398010	428.256378	921.964722	-104.518387	347.944763	841.697815	-70.980553	293.660919	776.405151	-73.647514	229.930862	714.675537	-82.532593	328.063721	746.467102	-111.876320	137.580826	624.492859	-96.196594	175.265396	623.744812	-178.834656	79.111664	609.006653	-149.153442	327.310699	497.973175	-137.586227	220.640686	507.733856	-66.460075	77.253525	892.252625	-458.583466	137.937515	826.927673	-454.956482	177.527328	862.757324	-445.308960	187.445175	759.274292	-436.998230	235.229446	652.954041	-424.659119	182.391098	545.991272	-450.999908	171.003372	460.169556	-443.524231	157.237244	376.470703	-427.961182	228.067001	454.886871	-420.440979	136.918518	254.741241	-409.551788	0.000000	0.000000	-0.000000	91.686577	228.321014	-366.907806	362.763916	167.661041	-374.294830	255.585297	160.516739	-439.356384	-225.040146	892.891602	-252.687973	-12.628933	84.508362	-456.000946	-21.543211	80.843971	-55.876289	
1501	7.5050	485.888000	1323.281616	-101.303207	515.545776	1305.838257	-415.902069	444.520599	1392.248657	-262.019531	453.088593	1227.454712	-262.210754	562.727783	1060.780762	-8.420400	729.317444	861.806213	-63.507862	567.604858	1043.981079	-526.793213	728.989807	866.534729	-429.965027	-73.121780	1146.277954	-252.528320	92.290977	1148.385254	-427.948761	92.552269	1165.388184	-103.981750	91.457283	1097.168579	-406.069092	118.288223	1123.124268	-136.656509	-42.548744	1188.217163	-205.436493	-49.416191	1187.201416	-311.182648	52.128273	1068.969971	-59.767609	23.877295	1008.139832	-448.434723	174.839905	1025.149658	-53.910786	256.404694	1011.617065	-61.160248	343.140961	990.052246	-74.968613	266.532196	1063.352173	-80.855339	428.585358	927.040588	-105.545403	350.031616	845.347778	-71.878731	296.764954	779.185669	-74.202934	233.995499	716.443481	-82.709259	331.479218	749.656006	-112.522362	142.679810	624.898315	-95.976357	180.360336	624.330688	-178.660538	84.383728	609.123657	-148.943481	333.026154	498.999146	-137.558411	226.337906	508.332855	-66.451286	75.153305	892.988586	-458.951599	135.792694	827.564514	-455.285980	175.430435	863.303833	-445.775452	185.277390	759.895935	-437.289520	232.528091	653.268921	-424.816803	179.573273	546.627991	-451.294708	167.815460	460.842407	-443.739502	153.587006	377.202606	-428.122284	224.775223	455.331604	-420.555054	132.661758	255.728821	-409.599365	0.000000	0.000000	-0.000000	87.227112	229.678772	-366.813080	357.631897	166.057617	-374.334381	250.344513	160.304443	-439.394135	-225.040146	892.922913	-252.595184	-12.635219	84.519341	-456.010956	-21.554722	80.876175	-55.884304	
1502	7.5100	485.009430	1323.257080	-101.106667	515.180481	1306.699463	-415.720398	444.598083	1393.193970	-262.218842	452.306396	1228.474121	-262.704498	561.521790	1060.550049	-9.664105	729.081726	861.838989	-63.906887	567.867371	1044.875977	-525.662109	729.038574	866.530945	-429.661316	-73.517281	1148.057617	-252.486465	90.926941	1149.696167	-428.181793	92.336334	1167.797607	-104.259689	90.026230	1098.359497	-406.765198	117.597328	1125.220093	-137.055054	-42.799938	1190.116943	-205.714813	-50.416100	1188.786377	-311.425903	51.131519	1072.252319	-59.722652	21.766214	1009.293457	-448.514130	173.717697	1028.557007	-54.657021	255.360229	1015.713257	-62.193207	342.276001	994.896667	-76.081566	264.874847	1067.423706	-82.315720	428.782776	931.636108	-106.592682	351.958282	848.679260	-72.771851	299.692108	781.697571	-74.628792	237.846069	718.042480	-82.806816	334.340881	752.354126	-114.633476	147.482422	625.001404	-95.619225	185.334183	624.437866	-178.417358	89.229614	608.978271	-148.675568	338.305298	499.663300	-137.557312	231.646164	508.704193	-66.411880	72.984680	893.708496	-459.142975	133.655518	828.324585	-455.607697	173.317368	864.054443	-446.391937	183.199417	760.653687	-437.592804	230.138733	653.776245	-424.957825	177.145767	547.280518	-451.507080	164.893539	461.656830	-443.866760	150.342758	378.109558	-428.339203	221.823883	455.958557	-420.626892	128.809662	256.896851	-409.562866	0.000000	0.000000	-0.000000	83.110977	231.320435	-366.802399	352.857635	164.686844	-374.342163	245.528641	160.161453	-439.413055	-225.052567	892.921204	-252.571182	-12.651350	84.574142	-455.962830	-21.546251	80.880333	-55.876499	
1503	7.5150	484.142548	1323.205078	-101.208969	514.822754	1307.494507	-415.447021	444.681702	1394.004395	-262.511292	451.455780	1229.372192	-263.420898	560.493408	1060.492920	-11.103865	729.095520	861.990417	-64.161766	568.295044	1045.777832	-524.142883	728.776123	866.252380	-429.549194	-74.269402	1150.209717	-252.359650	90.147659	1151.068115	-428.950958	92.133812	1170.057007	-104.539925	88.524254	1099.604126	-407.332184	116.891449	1127.116211	-137.652298	-43.104130	1192.003662	-206.025650	-51.031395	1190.246582	-311.734375	50.035606	1075.272949	-59.760208	19.564009	1010.415527	-448.529816	172.572235	1031.686401	-55.416187	254.268005	1019.550842	-63.250156	341.273163	999.415222	-77.230873	263.160095	1071.084717	-83.901100	428.788910	935.723816	-107.579582	353.755951	851.624023	-73.576279	302.427216	784.006958	-75.061523	241.373383	719.418762	-82.798981	337.311493	754.949890	-115.072639	151.976990	624.860779	-95.256210	189.743561	624.636108	-178.140808	93.715599	608.709900	-148.375488	343.635986	500.227997	-137.568695	236.558990	508.854950	-66.310349	70.825363	894.375854	-459.346130	131.526428	829.020874	-455.913239	171.217758	864.840881	-447.071350	181.225403	761.529724	-437.784637	228.080948	654.424988	-425.139343	174.940872	548.164368	-451.732056	162.278458	462.692810	-444.040710	147.401535	379.130646	-428.439819	219.217636	456.729401	-420.771881	125.263725	258.195740	-409.630707	0.000000	0.000000	-0.000000	79.493973	232.961090	-366.579590	348.460327	163.464325	-374.367523	241.024841	160.188034	-439.364197	-225.053192	892.918640	-252.516006	-12.646833	84.597946	-455.959351	-21.548929	80.883156	-55.873260	
